<?xml version="1.0" encoding="utf-8"?>
<!-- Generator: Adobe Illustrator 22.1.0, SVG Export Plug-In . SVG Version: 6.00 Build 0)  -->
<svg version="1.1" id="Layer_35" xmlns="http://www.w3.org/2000/svg" xmlns:xlink="http://www.w3.org/1999/xlink" x="0px" y="0px"
	 viewBox="0 0 512 512" style="enable-background:new 0 0 512 512;" xml:space="preserve">
<style type="text/css">
	.st0{fill:#BF996F;}
	.st1{fill:#FFFFFF;}
</style>
<g>
	<path class="st0" d="M256,40h192v40H256V40z"/>
	<path class="st0" d="M328,192h48v16h-48V192z"/>
	<path class="st0" d="M456,432h16v32h-16V432z"/>
	<path class="st0" d="M344,432h16v32h-16V432z"/>
	<path class="st0" d="M232,432h16v32h-16V432z"/>
</g>
<path class="st1" d="M256,40h16v16h-16V40z"/>
<path class="st1" d="M288,40h16v16h-16V40z"/>
<path class="st1" d="M320,40h16v16h-16V40z"/>
<path class="st1" d="M352,40h96v16h-96V40z"/>
<path class="st1" d="M256,72h192v16H256V72z"/>
<path class="st1" d="M472,392v-32H360v-27.4l64.1-36.6L360,259.4V240h24c13.2,0,24-10.8,24-24v-32c0-13.2-10.8-24-24-24h-24v-40h120
	V8H224v112h120v40h-24c-9,0-16.8,5.1-20.9,12.5c-4.4-2.8-9.5-4.5-15.1-4.5H146.2c13.3-11.7,21.8-28.9,21.8-48c0-35.3-28.7-64-64-64
	s-64,28.7-64,64c0,20.1,9.4,38.1,24,49.9c-32,7.3-56,36-56,70.1v80c0,22.1,17.9,40,40,40v112c0,17.6,14.4,32,32,32
	c9.6,0,18.1-4.3,24-11.1c5.9,6.7,14.4,11.1,24,11.1c17.6,0,32-14.3,32-32l0-240c0-4.4,3.6-8,8-8h116c4.5,0,8.7-1.2,12.5-3.1
	c2.3,10.9,11.9,19.1,23.5,19.1h24v19.4L279.9,296l64.1,36.6V360H232v32h-32v112h80V392h-32v-16h96v16h-32v112h80V392h-32v-16h96v16
	h-32v112h80V392H472z M240,24h224v80H240V24z M56,120c0-26.5,21.5-48,48-48s48,21.5,48,48s-21.5,48-48,48S56,146.5,56,120z M284,208
	H168c-13.2,0-24,10.8-24,24l0,240c0,8.8-7.2,16-16,16s-16-7.2-16-16l0-168H96v168c0,8.8-7.2,16-16,16s-16-7.2-16-16V224H48v120
	c-13.2,0-24-10.8-24-24v-80c0-30.9,25.1-56,56-56h204c6.6,0,12,5.4,12,12S290.6,208,284,208z M312,216v-32c0-4.4,3.6-8,8-8h64
	c4.4,0,8,3.6,8,8v32c0,4.4-3.6,8-8,8h-64C315.6,224,312,220.4,312,216z M352,273.2l39.9,22.8L352,318.8L312.1,296L352,273.2z
	 M264,488h-48v-80h48V488z M376,488h-48v-80h48V488z M488,488h-48v-80h48V488z"/>
<path class="st1" d="M232,424h16v16h-16V424z"/>
<path class="st1" d="M232,456h16v16h-16V456z"/>
<path class="st1" d="M344,424h16v16h-16V424z"/>
<path class="st1" d="M344,456h16v16h-16V456z"/>
<path class="st1" d="M456,456h16v16h-16V456z"/>
<path class="st1" d="M456,424h16v16h-16V424z"/>
<path class="st1" d="M328,192h16v16h-16V192z"/>
<path class="st1" d="M360,192h16v16h-16V192z"/>
</svg>
