<?xml version="1.0" encoding="utf-8"?>
<!-- Generator: Adobe Illustrator 22.1.0, SVG Export Plug-In . SVG Version: 6.00 Build 0)  -->
<svg version="1.1" id="Layer_35" xmlns="http://www.w3.org/2000/svg" xmlns:xlink="http://www.w3.org/1999/xlink" x="0px" y="0px"
	 viewBox="0 0 512 512" style="enable-background:new 0 0 512 512;" xml:space="preserve">
<style type="text/css">
	.st0{fill:#BF996F;}
	.st1{fill:#FFFFFF;}
</style>
<path class="st0" d="M360,192V40H40v240h232L360,192z"/>
<path class="st0" d="M128,472c-48.5,0-88-39.5-88-88s39.5-88,88-88s88,39.5,88,88S176.5,472,128,472z"/>
<path class="st1" d="M489.1,170.2l2.6-2.6c7.9-7.9,12.3-18.5,12.3-29.7c0-23.1-18.8-41.9-42-41.9c-11.2,0-21.7,4.4-29.7,12.3
	L392,148.7V8H8v496h283.3L392,403.3v-136l77.7-77.7l3-3c1.7-1.7,3.9-2.6,6.3-2.6c4.9,0,9,4,9,9c0,2.4-0.9,4.6-2.6,6.3l-67,67
	l11.3,11.3l67-67c4.7-4.7,7.3-11,7.3-17.7C504,182.8,497.9,174.1,489.1,170.2z M253.7,321c0.6-4.2,1.9-8.4,3.8-12.2l33.7,33.7
	c-3.8,1.9-7.9,3.2-12.2,3.8l-29.6,4.2L253.7,321z M304,332.7L267.3,296L400,163.3l36.7,36.7L304,332.7z M296,476.7V408h68.7
	L296,476.7z M376,392h-96v96H24V24h352v140.7l-80,80V104h64V88H248V40h-16v48H120V40h-16v48H40v16h64v176h16V104h48v176h16V104h48
	v176h16V104h32v156.7L253.7,287c-8.5,8.5-14.1,19.8-15.8,31.7l-7.2,50.7l50.7-7.2c11.9-1.7,23.2-7.3,31.7-15.8l63-63L376,392z
	 M448,188.7L411.3,152l32.4-32.4c4.9-4.9,11.4-7.6,18.3-7.6c14.3,0,25.9,11.6,25.9,25.9c0,6.9-2.7,13.4-7.6,18.3l-19,19l-3,3
	L448,188.7z"/>
<path class="st1" d="M128,360c4.4,0,8,3.6,8,8h16c0-10.4-6.7-19.2-16-22.5V328h-16v16h-16v24c0,13.2,10.8,24,24,24c4.4,0,8,3.6,8,8
	v8h-8c-4.4,0-8-3.6-8-8h-16c0,10.4,6.7,19.2,16,22.5V440h16v-16h16v-24c0-13.2-10.8-24-24-24c-4.4,0-8-3.6-8-8v-8H128z"/>
<circle class="st1" cx="80" cy="384" r="8"/>
<circle class="st1" cx="176" cy="384" r="8"/>
<path class="st1" d="M248,456h16v16h-16V456z"/>
<path class="st1" d="M248,424h16v16h-16V424z"/>
<path class="st1" d="M248,392h16v16h-16V392z"/>
</svg>
