<?xml version="1.0" encoding="utf-8"?>
<!-- Generator: Adobe Illustrator 22.1.0, SVG Export Plug-In . SVG Version: 6.00 Build 0)  -->
<svg version="1.1" id="Layer_3" xmlns="http://www.w3.org/2000/svg" xmlns:xlink="http://www.w3.org/1999/xlink" x="0px" y="0px"
	 viewBox="0 0 512 512" style="enable-background:new 0 0 512 512;" xml:space="preserve">
<style type="text/css">
	.st0{fill:#BF996F;}
	.st1{fill:#FFFFFF;}
</style>
<path class="st0" d="M282.7,284.4l0.2-3c-7.6,4.2-16.3,6.6-25.4,6.6c-11.4,0-22.4-3.7-31.5-10.5L208,264
	c20.7-10.3,37-27.6,46.1-48.9l1.7-4c5-11.6,16.4-19.2,29-19.2h3.6c0.3,0,0.6,0.1,1,0.1c2.1-6.7,4.4-16.7-2.2-23.3
	c-7.9-8-20.3-3.4-32.3,1c-4.8,1.8-13.8,5.1-16.2,4.3c-2.1-1.3-5.8-9.2-8-14c-5.2-11.3-11.1-24.1-22.7-24.1s-17.5,12.8-22.7,24.1
	c-2.2,4.8-5.9,12.7-7.9,14c-2.5,0.8-11.5-2.5-16.3-4.3c-12-4.4-24.4-8.9-32.3-1s-3.4,20.3,1,32.3c1.8,4.8,5.1,13.8,4.3,16.2
	c-1.3,2.1-9.2,5.8-14,8C108.8,230.5,96,236.4,96,248c0,11.6,12.8,17.5,24.1,22.7c4.8,2.2,12.7,5.9,14,7.9c0.8,2.5-2.5,11.5-4.3,16.3
	c-4.4,12-8.9,24.4-1,32.3c7.9,8,20.3,3.4,32.3-1c4.8-1.8,13.8-5.1,16.2-4.3c2.2,1.3,5.8,9.2,8,14c5.2,11.3,11.1,24.1,22.7,24.1
	s17.5-12.8,22.7-24.1c2.2-4.8,5.9-12.7,7.9-13.9c2.5-0.8,11.5,2.5,16.3,4.3c12,4.4,24.4,8.9,32.3,1c7.9-7.9,3.4-20.3-1-32.3
	C284.9,291.3,283.6,287.6,282.7,284.4L282.7,284.4z"/>
<path class="st1" d="M504,35v-3c0-13.2-10.8-24-24-24h-3l-112,96H24v272H8v48h121.9l-48,80h66.7l48-80h22.9l48,80h66.7l-48-80H408
	v-48h-16V165.6L504,35z M482.5,24.4c2.4,0.8,4.3,2.7,5.1,5.1L351.5,188.2l-27.8-27.8L482.5,24.4z M308.7,189.8l6.2-15.5l22.8,22.8
	l-15.5,6.2C318.9,197.8,314.2,193.1,308.7,189.8L308.7,189.8z M312,223.6c0,4.1-1.1,8.2-3.1,11.7l-12.7,22.2
	c-7.9,13.8-22.7,22.4-38.7,22.4c-9.6,0-19.1-3.2-26.7-8.9l-8.3-6.2c17.2-11.3,30.8-27.5,39-46.6l1.7-4c3.7-8.7,12.2-14.3,21.7-14.3
	h3.6C301.4,200,312,210.6,312,223.6L312,223.6z M139.5,488h-29.3l38.4-64h29.3L139.5,488z M305.9,488h-29.3l-38.4-64h29.3L305.9,488
	z M392,408H24v-16h368V408z M376,376H40V120h306.4l-41.1,35.2l-11.7,29.3c-1.7-0.2-3.4-0.5-5.2-0.5h-3.6c-15.9,0-30.2,9.4-36.4,24
	l-1.7,4c-8.3,19.5-23.4,35.4-42.3,44.9l-11.6,5.8l28.3,21.3c10.4,7.8,23.3,12.1,36.3,12.1c21.7,0,41.8-11.7,52.6-30.5l12.7-22.2
	c3.4-6,5.2-12.8,5.2-19.7c0-1.8-0.3-3.5-0.5-5.2l29.3-11.7l19.2-22.4L376,376z"/>
<path class="st1" d="M56,248h16v-96h32v-16H56V248z"/>
<path class="st1" d="M56,264h16v16H56V264z"/>
<path class="st1" d="M56,296h16v16H56V296z"/>
<path class="st1" d="M344,344h16v16h-16V344z"/>
<path class="st1" d="M344,312h16v16h-16V312z"/>
<path class="st1" d="M344,280h16v16h-16V280z"/>
</svg>
