<?xml version="1.0" encoding="utf-8"?>
<!-- Generator: Adobe Illustrator 22.1.0, SVG Export Plug-In . SVG Version: 6.00 Build 0)  -->
<svg version="1.1" id="Layer_1" xmlns="http://www.w3.org/2000/svg" xmlns:xlink="http://www.w3.org/1999/xlink" x="0px" y="0px"
	 viewBox="0 0 495.8 495.8" style="enable-background:new 0 0 495.8 495.8;" xml:space="preserve">
<style type="text/css">
	.st0{fill:#BF996F;}
	.st1{fill:#FFFFFF;}
</style>
<path class="st0" d="M146,0c-39.7,0-72,32.3-72,72c0,24,12.2,46.5,32,59.8V160h80v-28.2c19.8-13.3,32-35.8,32-59.8
	C218,32.3,185.7,0,146,0z M146,88c-8.8,0-16-7.2-16-16s7.2-16,16-16s16,7.2,16,16S154.9,88,146,88z"/>
<g>
	<path class="st1" d="M466,0l-46.5,34.9L372.8,144h-37.6l-14.8-32h9.6c17.6,0,32-14.4,32-32V48h16V0h-48v48h16v32
		c0,8.8-7.2,16-16,16h-17l-20.4-44.3L317,39.4L236.8,5.1l-23.5,82.2l24.8-12.4l9.7,21.4C231.3,97.3,218,111.1,218,128v16h-64V94.5
		c9.3-3.3,16-12.1,16-22.5c0-13.2-10.8-24-24-24s-24,10.8-24,24c0,10.4,6.7,19.2,16,22.5V144H86.7l-1.2,6.5
		c-3.9,20.2-4.2,40.9-1.1,61.5l-54.5,97.3L90.2,323v100.8h80v72h192V384.4c55.2-39.6,87.9-103.3,87.9-171.3l0-29.2
		c0-11-1-22.2-3.1-33.4l-1.2-6.6H430l36-86.4V0z M346,16h16v16h-16V16z M146,64c4.4,0,8,3.6,8,8s-3.6,8-8,8s-8-3.6-8-8
		S141.6,64,146,64z M450,43l-8.8-4.4L450,32V43z M317.5,144h-30.3l-14.5-32h30.1L317.5,144z M238.7,56.7l8.5-29.8L279,40.5l-7.5,3.8
		L295.4,96h-30l-19.5-42.9L238.7,56.7z M234,128c0-8.8,7.2-16,16-16h5l14.5,32H234V128z M434,183.9l0,29.2
		c0,64.1-31.5,124.1-84.4,160.5l-3.5,2.4v103.8h-160v-72h-80v-97.6l-51.9-11.8l46.8-83.5l-0.5-2.8c-3-17.5-3.2-35-0.6-52.2h332.3
		C433.4,168,434,176,434,183.9z M390.2,144L430,51l17.7,8.9L412.7,144H390.2z"/>
	<path class="st1" d="M162,224c22.1,0,40-17.9,40-40h-16c0,13.2-10.8,24-24,24s-24-10.8-24-24h-16C122,206,140,224,162,224z"/>
</g>
</svg>
