<?xml version="1.0" encoding="utf-8"?>
<!-- Generator: Adobe Illustrator 22.1.0, SVG Export Plug-In . SVG Version: 6.00 Build 0)  -->
<svg version="1.1" id="Layer_1_1_" xmlns="http://www.w3.org/2000/svg" xmlns:xlink="http://www.w3.org/1999/xlink" x="0px" y="0px"
	 viewBox="0 0 512 512" style="enable-background:new 0 0 512 512;" xml:space="preserve">
<style type="text/css">
	.st0{fill:#BF996F;}
	.st1{fill:#FFFFFF;}
</style>
<g>
	<g>
		<path class="st0" d="M472,184H328V88h144V184z"/>
	</g>
	<g>
		<path class="st0" d="M472,280H328v-72h144V280z"/>
	</g>
	<g>
		<rect x="40" y="184" class="st0" width="256" height="96"/>
	</g>
	<g>
		<path class="st0" d="M152,376H40v-80h112V376z"/>
	</g>
	<g>
		<path class="st0" d="M280,376H168v-80h112V376z"/>
	</g>
	<g>
		<path class="st1" d="M464,8H336c-22.1,0-40,17.9-40,40v104H48c-22.1,0-40,17.9-40,40v224c0,22.1,17.9,40,40,40h104v32h-32v16h208
			v-16h-32v-32h104c22.1,0,40-17.9,40-40v-40h24c22.1,0,40-17.9,40-40V48C504,25.9,486.1,8,464,8z M336,24h128c13.2,0,24,10.8,24,24
			v8H312v-8C312,34.8,322.8,24,336,24z M488,72v224H312V72H488z M280,488H168v-32h112V488z M400,440H48c-13.2,0-24-10.8-24-24v-8
			h400v8C424,429.2,413.2,440,400,440z M424,392H24V192c0-13.2,10.8-24,24-24h248v168c0,22.1,17.9,40,40,40h88V392z M464,360H336
			c-13.2,0-24-10.8-24-24v-24h176v24C488,349.2,477.2,360,464,360z"/>
		<rect x="376" y="328" class="st1" width="48" height="16"/>
		<rect x="456" y="264" class="st1" width="16" height="16"/>
		<rect x="328" y="264" class="st1" width="112" height="16"/>
		<rect x="328" y="232" class="st1" width="144" height="16"/>
		<rect x="328" y="200" class="st1" width="144" height="16"/>
		<rect x="168" y="296" class="st1" width="112" height="16"/>
		<rect x="168" y="328" class="st1" width="112" height="16"/>
		<rect x="168" y="360" class="st1" width="80" height="16"/>
		<rect x="264" y="360" class="st1" width="16" height="16"/>
	</g>
</g>
</svg>
