<?xml version="1.0" encoding="utf-8"?>
<!-- Generator: Adobe Illustrator 22.1.0, SVG Export Plug-In . SVG Version: 6.00 Build 0)  -->
<svg version="1.1" id="圖層_1" xmlns="http://www.w3.org/2000/svg" xmlns:xlink="http://www.w3.org/1999/xlink" x="0px" y="0px"
	 viewBox="0 0 496 496" style="enable-background:new 0 0 496 496;" xml:space="preserve">
<style type="text/css">
	.st0{fill:#BF996F;}
	.st1{fill:#FFFFFF;}
</style>
<g>
	<path class="st0" d="M341.8,73.5C328.2,52.6,305,40,280,40c-25,0-48.2,12.6-61.8,33.5L183.4,127c-3.2,5.5-6.3,10.8-9.2,16l32.6,13
		c5.2,2.7,10.8,4,17.1,4c17.6,0,26.7-10.4,34-18.7c7.4-8.5,12.1-13.3,22-13.3c9.9,0,14.6,4.8,22,13.3c7.3,8.3,16.4,18.7,34,18.7
		s26.7-10.4,34-18.7c3.2-3.6,6.2-7.1,9.7-9.5L341.8,73.5z"/>
	<path class="st0" d="M213.8,153.5C200.2,132.6,177,120,152,120c-25,0-48.2,12.6-61.8,33.5l-31.4,48.3c1,1.1,2.1,2.3,3.1,3.4
		c7.3,8.3,16.4,18.7,34,18.7c17.6,0,26.7-10.4,34-18.7c7.4-8.5,12.1-13.3,22-13.3c9.9,0,14.6,4.8,22,13.3c7.3,8.3,16.4,18.7,34,18.7
		s26.7-10.4,34-18.7c1-1.2,2.1-2.4,3.2-3.5L213.8,153.5z"/>
	<path class="st0" d="M368,310.2V280H256c0,22.1-17.9,40-40,40s-40-17.9-40-40H64v30.2l29.8,7.6c2.3,7.6,5.4,14.9,9,21.8l-15.7,26.5
		l42.7,42.7l26.5-15.7c6.9,3.6,14.2,6.7,21.8,9l7.6,29.8h60.4l7.6-29.8c7.6-2.3,14.9-5.4,21.8-9l26.5,15.7l42.7-42.7l-15.7-26.5
		c3.6-6.9,6.7-14.2,9-21.8L368,310.2z"/>
</g>
<path class="st1" d="M72,120c22.1,0,40-17.9,40-40S94.1,40,72,40S32,57.9,32,80S49.9,120,72,120z M72,56c13.2,0,24,10.8,24,24
	s-10.8,24-24,24S48,93.2,48,80S58.8,56,72,56z"/>
<path class="st1" d="M440,98.7l-8,10.7V40c0-22.1-17.9-40-40-40H40C17.9,0,0,17.9,0,40v208c0,22.1,17.9,40,40,40h80.4
	c4.1,49.2,45.4,88,95.6,88s91.5-38.8,95.6-88H384v152c0,30.9,25.1,56,56,56s56-25.1,56-56V173.3L440,98.7z M440,125.3l32,42.7h-64
	l24-32L440,125.3z M400,400h80v16h-80V400z M448,384V216h-16v168h-32V184h32v16h16v-16h32v200H448z M16,40c0-13.2,10.8-24,24-24h352
	c13.2,0,24,10.8,24,24v90.7l-14.7,19.6l-52.8-81.1C333.4,45.9,307.8,32,280,32c-27.8,0-53.4,13.9-68.5,37.2l-31.2,47.9
	c-8.9-3.3-18.5-5.1-28.3-5.1c-27.8,0-53.4,13.9-68.5,37.2L16.4,252.3c-0.3-1.4-0.4-2.9-0.4-4.3V40z M25.8,267.3l71.1-109.4
	c12.2-18.7,32.8-29.9,55.1-29.9c22.3,0,42.9,11.2,55.1,29.9L281.3,272H40C34.7,272,29.8,270.2,25.8,267.3z M246.9,288
	c-3.6,13.8-16,24-30.9,24s-27.3-10.2-30.9-24H246.9z M216,360c-41.4,0-75.6-31.6-79.6-72h32.3c3.8,22.7,23.5,40,47.3,40
	c23.7,0,43.4-17.3,47.3-40h32.3C291.6,328.4,257.4,360,216,360z M300.4,272l-79.9-122.8c-6.7-10.3-15.6-18.7-25.7-24.9l30.1-46.3
	C237.1,59.2,257.7,48,280,48c22.3,0,42.9,11.2,55.1,29.9l55.9,86l-7.1,9.4V272H300.4z M440,480c-22.1,0-40-17.9-40-40v-8h80v8
	C480,462.1,462.1,480,440,480z"/>
</svg>
