<?xml version="1.0" encoding="utf-8"?>
<!-- Generator: Adobe Illustrator 22.1.0, SVG Export Plug-In . SVG Version: 6.00 Build 0)  -->
<svg version="1.1" id="Layer_1" xmlns="http://www.w3.org/2000/svg" xmlns:xlink="http://www.w3.org/1999/xlink" x="0px" y="0px"
	 viewBox="0 0 496.2 496.2" style="enable-background:new 0 0 496.2 496.2;" xml:space="preserve">
<style type="text/css">
	.st0{fill:#BF996F;}
	.st1{fill:#FFFFFF;}
</style>
<path class="st0" d="M248,128.1c-35.3,0-64-28.7-64-64s28.7-64,64-64s64,28.7,64,64S283.3,128.1,248,128.1z"/>
<g>
	<path class="st1" d="M463.2,132.5c-42.6-44.6-113.1-48.5-160.4-9l-54.7,45.8l-54.7-45.8C146.1,84,75.6,87.9,33,132.5
		c-22.7,23.7-34.6,56.2-32.8,89c1.8,32.8,17.3,63.7,42.4,84.7l24.2,20.2c-5,11.7-4.1,25.5,3.7,35.8c6,7.8,14.6,12.8,24.3,13.8
		c2.3,0.3,4.7,0.3,7,0.1c-0.2,1.6-0.3,3.3-0.3,5c0.2,10.8,5.2,20.9,13.8,27.7c7.1,5.6,16,7.9,24.8,7.1c-0.2,1.7-0.3,3.4-0.3,5.2
		c0.2,10.8,5.2,20.9,13.8,27.7c7.1,5.6,16,8,24.8,7.1c-0.2,1.7-0.3,3.4-0.3,5.2c0.2,10.8,5.2,20.9,13.8,27.7
		c6.2,4.9,13.7,7.3,21.4,7.3c8.4,0,16.9-2.9,23.8-8.7l3.1-2.6c6.7,6.1,15.2,9.2,23.7,9.1c8.8,0,17.6-3.2,24.4-9.7
		c7.1-6.8,11.2-16.4,11.1-26.2c0-0.9-0.2-1.7-0.3-2.6c1.6,0.2,3.2,0.4,4.9,0.4c8.8,0,17.6-3.2,24.4-9.7c7.1-6.8,11.2-16.3,11.1-26.2
		c0-0.9-0.2-1.8-0.3-2.6c1.6,0.2,3.3,0.4,4.9,0.4c8.8,0,17.6-3.2,24.4-9.7c7.1-6.8,11.2-16.3,11.1-26.2c0-0.9-0.2-1.8-0.3-2.6
		c1.6,0.2,3.2,0.4,4.9,0.4c8.8,0,17.6-3.2,24.4-9.7c7.1-6.8,11.2-16.4,11.1-26.2c0-2.6-0.4-5.2-1-7.7c0.1-0.1,0.2-0.1,0.3-0.2
		l34.8-29.5c25.1-21,40.6-51.9,42.4-84.7C497.8,188.6,485.9,156.2,463.2,132.5z M52.9,294c-22.1-18.4-35.1-44.5-36.7-73.4
		c-1.6-28.9,8.5-56.2,28.4-77.1c36.8-38.5,97.7-41.9,138.5-7.8l130.3,108.9c4.3,3.6,6.8,8.7,7.1,14.3c0.3,5.6-1.6,10.9-5.5,15
		c-7.1,7.4-18.5,8.2-26.5,1.7l-59-47.5c-3.4-2.8-8.5-2.2-11.2,1.2c0,0,0,0,0,0.1l-0.1-0.1c-9.8,12.4-24.3,19.4-40,19.4
		c-28.2,0-51.1-23.1-51.1-51.5h-16c0,25,13.6,46.7,33.6,58.4l-67.6,56.5c-0.4,0.3-0.7,0.7-1.1,1.1L52.9,294z M201.6,476.2
		c-4.8-3.8-7.6-9.4-7.7-15.3c-0.1-6,2.5-11.6,7.1-15.5l4.3-3.6c1.2,8.1,4.9,15.7,11,21.3l11.8,10.8l-1.5,1.2
		C219.2,481.4,208.7,481.8,201.6,476.2z M277.1,472.7c-7.4,7-19,7.1-26.5,0.2l-23.4-21.6c-4.1-3.7-6.3-8.8-6.4-14.4
		c0-5.5,2.1-10.7,6.1-14.5c3.7-3.5,8.5-5.3,13.4-5.3c4.7,0,9.4,1.7,13.1,5.1l7.7,7.1l15.8,14.5c4,3.7,6.3,8.8,6.3,14.4
		C283.2,463.7,281.1,468.9,277.1,472.7z M317.1,434.6c-7.4,7-19,7.1-26.5,0.2l-2.9-2.7c0,0,0,0-0.1-0.1l-20.4-18.8l0,0
		c-4.1-3.7-6.3-8.8-6.4-14.4s2.1-10.7,6.1-14.5c3.7-3.5,8.5-5.3,13.4-5.3c4.7,0,9.4,1.7,13.1,5.1l23.4,21.6
		c4.1,3.7,6.3,8.8,6.4,14.4C323.3,425.6,321.1,430.8,317.1,434.6z M357.2,396.4c-7.4,7-19,7.1-26.5,0.2l-23.4-21.6
		c-4.1-3.7-6.3-8.8-6.4-14.4s2.1-10.7,6.1-14.5c3.7-3.5,8.5-5.3,13.4-5.3c4.7,0,9.4,1.7,13.1,5.1l17.1,15.7l6.4,5.9
		c4,3.7,6.3,8.8,6.3,14.4C363.4,387.5,361.2,392.6,357.2,396.4z M397.3,358.3c-7.4,7-19,7.1-26.5,0.2l-3-2.7c0,0,0,0-0.1-0.1
		L349.6,339l-2.2-2c-4.1-3.7-6.3-8.8-6.4-14.4c0-5.5,2.1-10.7,6.1-14.5c3.7-3.5,8.5-5.3,13.4-5.3c4.7,0,9.4,1.7,13.1,5.1l23.4,21.6
		c4.1,3.7,6.3,8.8,6.4,14.4S401.3,354.5,397.3,358.3z M480,220.6c-1.6,28.8-14.6,54.9-36.8,73.4l-32.1,27.3c-1-1.2-2-2.5-3.2-3.6
		l-23.4-21.6c-13.7-12.6-34.9-12.4-48.3,0.4c-7.1,6.8-11.2,16.3-11.1,26.2c0,0.9,0.2,1.7,0.3,2.6c-10.4-1.4-21.2,1.6-29.3,9.3
		c-7.1,6.8-11.2,16.4-11.1,26.2c0,0.9,0.2,1.7,0.3,2.6c-10.4-1.4-21.2,1.6-29.3,9.3c-7.1,6.8-11.2,16.4-11.1,26.2
		c0,0.9,0.2,1.7,0.3,2.6c-10.4-1.4-21.2,1.6-29.3,9.3c-2.1,2-3.8,4.3-5.4,6.7c-1,0.3-2,0.8-2.9,1.5l-16.8,14.1c0,0,0,0,0,0l-2.4,2
		c-7.4,6.2-17.9,6.6-25,1.1c-4.8-3.8-7.6-9.4-7.6-15.3c-0.1-6,2.5-11.6,7-15.5l0,0l0,0l83.2-69.6l-10.3-12.3l-83.2,69.6l0,0h0h0
		l-2.4,2c-7.4,6.2-17.9,6.6-25,1.1c-4.8-3.8-7.6-9.4-7.7-15.4s2.5-11.6,7-15.4l0,0l84.4-70.6l-10.3-12.3l-84.4,70.6c0,0,0,0,0,0
		l-3.1,2.6c-4.1,3.4-9.3,5-14.6,4.4c-5.3-0.6-10.1-3.3-13.4-7.6c-6.3-8.3-4.4-20.8,4.2-28l74-61.9c5.4,1.4,11,2.2,16.7,2.2
		c17.9,0,34.6-7,47.1-19.5l53.1,42.8c14.5,11.7,35.2,10.4,48.1-3.1c6.9-7.2,10.5-17,9.9-26.9c-0.6-9.9-5.2-19.3-12.8-25.7
		l-63.1-52.7l52.5-43.9c40.8-34.2,101.7-30.7,138.5,7.8C471.5,164.4,481.6,191.7,480,220.6z"/>
	<path class="st1" d="M236,96.1h4v8h16v-8h4c11,0,20-9,20-20s-9-20-20-20h-24c-2.2,0-4-1.8-4-4s1.8-4,4-4h24c2.2,0,4,1.8,4,4v4h16
		v-4c0-11-9-20-20-20h-4v-8h-16v8h-4c-11,0-20,9-20,20s9,20,20,20h24c2.2,0,4,1.8,4,4s-1.8,4-4,4h-24c-2.2,0-4-1.8-4-4v-4h-16v4
		C216,87.1,225,96.1,236,96.1z"/>
	<path class="st1" d="M344.9,64.2l0.8-16c-1.5-0.1-3-0.1-4.4-0.1h-12.9v16h12.9C342.5,64.1,343.7,64.1,344.9,64.2z"/>
	<path class="st1" d="M381.5,58.5c-5.4-3.1-11.3-5.5-17.3-7.2l-4.4,15.4c4.8,1.4,9.5,3.4,13.9,5.8L381.5,58.5z"/>
	<path class="st1" d="M409.1,83.5c-3.6-5.1-7.7-9.8-12.4-14L386,81.3c3.7,3.4,7.1,7.2,10,11.3L409.1,83.5z"/>
	<path class="st1" d="M110.1,81.2L99.4,69.4c-4.6,4.2-8.8,8.9-12.4,14l13.1,9.2C103,88.4,106.3,84.6,110.1,81.2z"/>
	<path class="st1" d="M136.3,66.7l-4.4-15.4c-6,1.7-11.8,4.2-17.3,7.2l7.8,14C126.8,70,131.4,68,136.3,66.7z"/>
	<path class="st1" d="M154.7,64.1h13v-16h-13c-1.5,0-2.9,0-4.4,0.1l0.9,16C152.3,64.1,153.5,64.1,154.7,64.1z"/>
</g>
</svg>
