<?xml version="1.0" encoding="utf-8"?>
<!-- Generator: Adobe Illustrator 22.1.0, SVG Export Plug-In . SVG Version: 6.00 Build 0)  -->
<svg version="1.1" id="圖層_1" xmlns="http://www.w3.org/2000/svg" xmlns:xlink="http://www.w3.org/1999/xlink" x="0px" y="0px"
	 viewBox="0 0 497 497" style="enable-background:new 0 0 497 497;" xml:space="preserve">
<style type="text/css">
	.st0{fill:#BF996F;}
	.st1{fill:#FFFFFF;}
</style>
<g>
	<path class="st0" d="M328,273.1l-24,88l104,32v-56L328,273.1z"/>
	<path class="st0" d="M88.1,337v56l104-32l-24-88L88.1,337z"/>
	<path class="st0" d="M312,209.1c0,35.3-28.6,64-64,64c-35.3,0-64-28.6-64-64c0-35.3,28.6-64,64-64C283.4,145.1,312,173.7,312,209.1
		z"/>
</g>
<path class="st1" d="M240.1,457h16v40h-16V457z"/>
<path class="st1" d="M272,433h16v32h-16V433z"/>
<path class="st1" d="M208.1,433h16v32h-16V433z"/>
<path class="st1" d="M248.1,169.1c-22,0-40,17.9-40,40c0,22,17.9,40,40,40c22.1,0,40-17.9,40-40C288,187,270.1,169.1,248.1,169.1z
	 M248.1,233.1c-13.2,0-24-10.8-24-24c0-13.2,10.8-24,24-24c13.2,0,24,10.8,24,24C272,222.3,261.3,233.1,248.1,233.1z"/>
<path class="st1" d="M440,153.1c-0.2,0-0.3,0-0.5,0c-4-35.9-34.5-64-71.5-64c-12.8,0-25.3,3.4-36.2,9.8
	c-24.4-65.7-77-95.3-79.9-96.8L248.1,0l-3.8,2.1c-2,1.1-29,16.3-53.3,48.3c-9.1-6-19.8-9.3-30.9-9.3c-9.3,0-18.2,2.4-26.3,6.7
	c-10-9.1-23.1-14.7-37.7-14.7c-28.4,0-51.8,21.2-55.4,48.6c-22.9,3.6-40.5,23.4-40.5,47.3c0,26.5,21.5,48,48,48h104.1
	c0.8,61,10.6,111.7,19.3,144.9l-29.3,7.3l3.9,15.5l29.7-7.4c4.7,16.1,8.4,25.5,8.9,26.6l2,5h14.6l8,48h77.5l8-48h14.6l2-5
	c0.4-1.1,4.1-10.6,8.9-26.6l29.7,7.4l3.9-15.5l-29.3-7.3c4-15.4,8.3-34.6,11.8-56.9H440c30.9,0,56-25.1,56-56
	C496,178.2,470.9,153.1,440,153.1z M248,18.5c10.8,7,42.2,30.1,62.3,71.6c-17.4,14.8-39.2,23-62.2,23c-23.1,0-45-8.3-62.4-23.2
	C205.6,48.2,237,25.5,248,18.5z M16.1,129.1c0-17.6,14.3-32,32-32s32,14.3,32,32h16c0-23.5-17-43-39.3-47.2
	c3.4-18.6,19.7-32.8,39.3-32.8c22.1,0,40,17.9,40,40h16c0-10.4-2.9-20.2-7.9-28.5c12.1-5.1,26.5-4,37.7,3.1
	c-15.5,24.4-28.1,56.6-29.6,97.5H48.1C30.5,161.1,16.1,146.7,16.1,129.1z M273.3,401h-50.4l-5.3-32h61.1L273.3,401z M298.5,353
	H197.6c-6.7-19.1-29.6-90.6-29.6-184c0-24.4,4.4-45.6,11-63.8c19.6,15.4,43.7,23.8,69,23.8c25.2,0,49.2-8.4,68.8-23.7
	c6.7,18.2,11.2,39.3,11.2,63.7C328,262.4,305.2,333.9,298.5,353z M440,249.1H338.8c3.1-24,5.3-50.8,5.3-80c0-20.1-2.7-38.2-7.2-54.4
	c9.2-6.2,20-9.5,31.2-9.5c29,0,52.9,22.2,55.7,50.4c-23,7-39.7,28.3-39.7,53.6h16c0-22.1,17.9-40,40-40c22.1,0,40,17.9,40,40
	C480,231.1,462.1,249.1,440,249.1z"/>
<path class="st1" d="M208.1,481h16v16h-16V481z"/>
<path class="st1" d="M272,481h16v16h-16V481z"/>
</svg>
