<?xml version="1.0" encoding="utf-8"?>
<!-- Generator: Adobe Illustrator 22.1.0, SVG Export Plug-In . SVG Version: 6.00 Build 0)  -->
<svg version="1.1" id="Layer_1" xmlns="http://www.w3.org/2000/svg" xmlns:xlink="http://www.w3.org/1999/xlink" x="0px" y="0px"
	 viewBox="0 0 512 512" style="enable-background:new 0 0 512 512;" xml:space="preserve">
<style type="text/css">
	.st0{fill:#BF996E;stroke:#BF996E;stroke-width:16;stroke-miterlimit:10;}
	.st1{fill:#FFFFFF;}
</style>
<circle class="st0" cx="255.7" cy="256.3" r="245.9"/>
<g>
	<path class="st1" d="M255.6,125.3c-1.3,0-2.4,0.5-3.4,1.5c-17.6,17.6-29.8,34.6-36.5,50.8c-6.7,16.3-10.1,37.1-10.1,62.4
		c0.1,10.9,0.7,23.4,1.9,37.6l-36.4,40.4c-0.9,1.2-1.3,2.6-1,4.3l16.2,61.6c0.5,2.2,2,3.3,4.5,3.4h13c1.2,0,2.3-0.5,3.2-1.4
		c0.4-0.4,0.7-0.7,0.8-1l19.3-36.6l56.9,0l19.3,36.6c0.9,1.6,2.2,2.4,4.1,2.4l13,0c1.3-0.1,2.4-0.6,3.2-1.4c0.6-0.6,1-1.3,1.2-2
		l16.2-61.6c0.3-1.6-0.1-3-1-4.3l-36.4-40.4c1.2-14.2,1.9-26.7,1.9-37.6c-0.1-24.1-3.7-44.8-10.8-62.2c-7.2-17.4-19.1-34.4-36-51.3
		C258,125.7,256.9,125.3,255.6,125.3z M269.4,188.2c0,3.8-1.4,7-4.1,9.7c-2.7,2.7-5.9,4.1-9.7,4.1c-3.8,0-7-1.4-9.7-4.1
		c-2.7-2.7-4.1-5.9-4.1-9.7c0-3.8,1.4-7,4.1-9.7c2.7-2.7,5.9-4.1,9.7-4.1c3.8,0,7,1.4,9.7,4.1C268.1,181.2,269.4,184.4,269.4,188.2z
		"/>
</g>
</svg>
