<?xml version="1.0" encoding="utf-8"?>
<!-- Generator: Adobe Illustrator 22.1.0, SVG Export Plug-In . SVG Version: 6.00 Build 0)  -->
<svg version="1.1" id="圖層_1" xmlns="http://www.w3.org/2000/svg" xmlns:xlink="http://www.w3.org/1999/xlink" x="0px" y="0px"
	 viewBox="0 0 200 200" style="enable-background:new 0 0 200 200;" xml:space="preserve">
<style type="text/css">
	.st0{fill:#BF996E;}
</style>
<path class="st0" d="M158.3,58.3h-25V45.8c0-11.5-9.3-20.8-20.8-20.8l0,0h-25C76,25,66.7,34.3,66.7,45.8v12.5h-25
	c-13.8,0-25,11.2-25,25V150c0,13.8,11.2,25,25,25h116.7c13.8,0,25-11.2,25-25V83.3C183.3,69.5,172.1,58.3,158.3,58.3L158.3,58.3z
	 M83.3,45.8c0-2.3,1.9-4.2,4.2-4.2l0,0h25c2.3,0,4.2,1.9,4.2,4.2v12.5H83.3L83.3,45.8z M166.7,150c0,4.6-3.7,8.3-8.3,8.3
	c0,0,0,0,0,0H41.7c-4.6,0-8.3-3.7-8.3-8.3l0,0V83.3c0-4.6,3.7-8.3,8.3-8.3h116.7c4.6,0,8.3,3.7,8.3,8.3l0,0V150z"/>
<path class="st0" d="M100,87.5c-16.1,0-29.2,13.1-29.2,29.2s13.1,29.2,29.2,29.2s29.2-13.1,29.2-29.2l0,0
	C129.2,100.6,116.1,87.5,100,87.5z M100,129.2c-6.9,0-12.5-5.6-12.5-12.5s5.6-12.5,12.5-12.5c6.9,0,12.5,5.6,12.5,12.5
	S106.9,129.2,100,129.2z"/>
</svg>
