<?xml version="1.0" encoding="utf-8"?>
<!-- Generator: Adobe Illustrator 22.1.0, SVG Export Plug-In . SVG Version: 6.00 Build 0)  -->
<svg version="1.1" id="圖層_1" xmlns="http://www.w3.org/2000/svg" xmlns:xlink="http://www.w3.org/1999/xlink" x="0px" y="0px"
	 viewBox="0 0 200 200" style="enable-background:new 0 0 200 200;" xml:space="preserve">
<style type="text/css">
	.st0{fill:#BF996E;}
</style>
<path class="st0" d="M158.3,33.3H41.7c-13.8,0-25,11.2-25,25l0,0v83.3c0,13.8,11.2,25,25,25h116.7c13.8,0,25-11.2,25-25V58.3
	C183.3,44.5,172.1,33.3,158.3,33.3L158.3,33.3z M152.8,50L100,89.6L47.2,50H152.8z M158.3,150H41.7c-4.6,0-8.3-3.7-8.3-8.3l0,0V60.4
	L95,106.7c1.4,1.1,3.2,1.7,5,1.7s3.6-0.6,5-1.7l61.7-46.3v81.2C166.7,146.3,162.9,150,158.3,150C158.3,150,158.3,150,158.3,150
	L158.3,150z"/>
</svg>
