<?xml version="1.0" encoding="utf-8"?>
<!-- Generator: Adobe Illustrator 22.1.0, SVG Export Plug-In . SVG Version: 6.00 Build 0)  -->
<svg version="1.1" id="圖層_1" xmlns="http://www.w3.org/2000/svg" xmlns:xlink="http://www.w3.org/1999/xlink" x="0px" y="0px"
	 viewBox="0 0 200 200" style="enable-background:new 0 0 200 200;" xml:space="preserve">
<style type="text/css">
	.st0{fill:#BF996E;}
</style>
<path class="st0" d="M43.6,88.7c2.9,3.5,8.2,4,11.7,1.1c0,0,0,0,0,0l36.3-30.2v98.8c0,4.6,3.7,8.3,8.3,8.3s8.3-3.7,8.3-8.3V59.5
	l36.3,30.2c3.5,2.9,8.8,2.5,11.8-1.1c2.9-3.5,2.5-8.8-1.1-11.8l0,0l-50-41.7l-1.3-0.7l-1.1-0.6c-1.9-0.7-4.1-0.7-6,0l-1.1,0.6
	l-1.2,0.7l-50,41.7C41.1,79.9,40.6,85.1,43.6,88.7C43.6,88.7,43.6,88.7,43.6,88.7z"/>
</svg>
