<?xml version="1.0" encoding="utf-8"?>
<!-- Generator: Adobe Illustrator 22.1.0, SVG Export Plug-In . SVG Version: 6.00 Build 0)  -->
<svg version="1.1" id="圖層_1" xmlns="http://www.w3.org/2000/svg" xmlns:xlink="http://www.w3.org/1999/xlink" x="0px" y="0px"
	 viewBox="0 0 200 200" style="enable-background:new 0 0 200 200;" xml:space="preserve">
<style type="text/css">
	.st0{fill:#BF996E;}
</style>
<path class="st0" d="M95.4,16.3C76,35.6,58.2,55.1,52.6,80.9c-2.9,13.6-2.3,27.9,0.5,41.8c-12.6,14.2-18.4,33.5-15.3,52.3
	c0.4,2.6,2.1,4.7,4.5,5.7c2.4,1,5.2,0.7,7.3-0.9c5.6-4,13.1-7.2,21.7-9.5c2.6,4.5,5.2,8.8,7.9,12.5c1.4,2,3.7,3.2,6.2,3.2l29-0.2
	c2,0,4-0.8,5.4-2.2c0.3-0.3,0.6-0.6,0.8-1c2.7-3.8,5.4-8.1,8-12.6c8.5,2.2,16,5.3,21.6,9.3c2.1,1.5,4.9,1.8,7.3,0.8
	c0.9-0.4,1.8-1,2.5-1.7c1.1-1.1,1.8-2.5,2.1-4.1c3.2-18.9-2.3-38-14.8-52.1c2.9-13.9,3.7-28.3,0.9-41.8
	c-5.3-25.7-23.7-45.8-42.1-64.2C103.1,13.3,98.3,13.3,95.4,16.3z M49.6,165.2c-0.1-9.6,2.6-18.9,7.6-27c2.3,7.3,5.1,14.3,8.2,20.8
	C59.7,160.7,54.3,162.8,49.6,165.2z M150.4,164.8c-4.7-2.4-10-4.5-15.7-6.1c3.2-6.6,6-13.6,8.4-20.9
	C148,145.8,150.6,155.2,150.4,164.8z M133.3,83.6c5.8,28.1-7,63.3-22.9,87.2l-21,0.1c-15.6-23.7-28.1-58.9-22-87
	c4.2-19.5,17.7-35.7,33.2-51.6C116,48.1,129.3,64.2,133.3,83.6z M109.3,94.7c5-5,5-12.9,0.1-17.8C104.5,72,96.5,72,91.5,77
	c-4.9,4.9-5,12.9-0.1,17.8C96.3,99.7,104.3,99.7,109.3,94.7z"/>
</svg>
