<?xml version="1.0" encoding="utf-8"?>
<!-- Generator: Adobe Illustrator 22.1.0, SVG Export Plug-In . SVG Version: 6.00 Build 0)  -->
<svg version="1.1" id="圖層_1" xmlns="http://www.w3.org/2000/svg" xmlns:xlink="http://www.w3.org/1999/xlink" x="0px" y="0px"
	 viewBox="0 0 200 200" style="enable-background:new 0 0 200 200;" xml:space="preserve">
<style type="text/css">
	.st0{fill:#BF996E;}
</style>
<path class="st0" d="M158.3,25H41.7c-13.8,0-25,11.2-25,25v66.7c0,13.8,11.2,25,25,25h50v16.7H58.3c-4.6,0-8.3,3.7-8.3,8.3
	c0,4.6,3.7,8.3,8.3,8.3h83.3c4.6,0,8.3-3.7,8.3-8.3c0-4.6-3.7-8.3-8.3-8.3h-33.3v-16.7h50c13.8,0,25-11.2,25-25V50
	C183.3,36.2,172.1,25,158.3,25L158.3,25z M166.7,116.7c0,4.6-3.7,8.3-8.3,8.3c0,0,0,0,0,0H41.7c-4.6,0-8.3-3.7-8.3-8.3l0,0V50
	c0-4.6,3.7-8.3,8.3-8.3h116.7c4.6,0,8.3,3.7,8.3,8.3v0L166.7,116.7z"/>
</svg>
