<?xml version="1.0" encoding="utf-8"?>
<!-- Generator: Adobe Illustrator 22.1.0, SVG Export Plug-In . SVG Version: 6.00 Build 0)  -->
<svg version="1.1" id="圖層_1" xmlns="http://www.w3.org/2000/svg" xmlns:xlink="http://www.w3.org/1999/xlink" x="0px" y="0px"
	 viewBox="0 0 200 200" style="enable-background:new 0 0 200 200;" xml:space="preserve">
<style type="text/css">
	.st0{fill:#BF996E;}
</style>
<path class="st0" d="M100,58.3C77,58.3,58.3,77,58.3,100c0,13.1,6.2,25.5,16.7,33.3v33.3c0,9.2,7.5,16.7,16.7,16.7h16.7
	c9.2,0,16.7-7.5,16.7-16.7v-33.3c18.4-13.8,22.1-39.9,8.3-58.3C125.5,64.5,113.1,58.3,100,58.3z M112.5,121.6
	c-2.6,1.5-4.2,4.3-4.2,7.2v37.8H91.7v-37.8c0-3-1.6-5.8-4.2-7.2C79.8,117.1,75,108.9,75,100c0-13.8,11.2-25,25-25s25,11.2,25,25
	C125,108.9,120.2,117.1,112.5,121.6z M100,50c4.6,0,8.3-3.7,8.3-8.3v0V25c0-4.6-3.7-8.3-8.3-8.3s-8.3,3.7-8.3,8.3v16.7
	C91.7,46.3,95.4,50,100,50z M175,91.7h-16.7c-4.6,0-8.3,3.7-8.3,8.3s3.7,8.3,8.3,8.3H175c4.6,0,8.3-3.7,8.3-8.3S179.6,91.7,175,91.7
	L175,91.7z M41.7,91.7H25c-4.6,0-8.3,3.7-8.3,8.3s3.7,8.3,8.3,8.3h16.7c4.6,0,8.3-3.7,8.3-8.3S46.3,91.7,41.7,91.7z M63.8,53.5
	l-12-11.8c-3.4-3.2-8.7-3-11.9,0.3c-3.2,3.4-3,8.7,0.3,11.9l0,0l12,11.6c1.6,1.6,3.8,2.4,6.1,2.3c2.3,0,4.4-0.9,6-2.6
	C67.4,61.9,67.2,56.6,63.8,53.5z M159.9,42.1c-3.3-3.2-8.5-3.2-11.7,0l-12,11.4c-3.2,3.3-3.2,8.5,0,11.8c1.6,1.6,3.7,2.6,6,2.6
	c2.1,0,4.2-0.8,5.8-2.3l12-11.6C163.2,50.7,163.2,45.4,159.9,42.1C159.9,42.1,159.9,42.1,159.9,42.1z"/>
</svg>
