<?xml version="1.0" encoding="utf-8"?>
<!-- Generator: Adobe Illustrator 16.0.3, SVG Export Plug-In . SVG Version: 6.00 Build 0)  -->
<!DOCTYPE svg PUBLIC "-//W3C//DTD SVG 1.1//EN" "http://www.w3.org/Graphics/SVG/1.1/DTD/svg11.dtd">
<svg version="1.1" id="圖層_1" xmlns="http://www.w3.org/2000/svg" xmlns:xlink="http://www.w3.org/1999/xlink" x="0px" y="0px"
	 width="375.518px" height="595.281px" viewBox="233.186 0 375.518 595.281" enable-background="new 233.186 0 375.518 595.281"
	 xml:space="preserve">
<g>
	<path fill="#FFFFFF" d="M548.779,0H293.111c-33.042,0-59.925,26.883-59.925,59.925v475.43c0,33.042,26.883,59.925,59.925,59.925
		h255.668c33.042,0,59.925-26.883,59.925-59.925V59.925C608.704,26.883,581.821,0,548.779,0z M293.111,27.559h255.668
		c17.846,0,32.365,14.52,32.365,32.365v13.329H260.746V59.925C260.746,42.079,275.265,27.559,293.111,27.559z M581.144,100.813
		v390.601H260.746V100.813H581.144z M548.779,567.721H293.111c-17.848,0-32.365-14.52-32.365-32.366v-16.381h320.398v16.381
		C581.144,553.202,566.625,567.721,548.779,567.721z"/>
	<path fill="#FFFFFF" d="M420.949,531.094c-3.624,0-7.18,1.475-9.742,4.037c-2.577,2.563-4.037,6.118-4.037,9.742
		s1.46,7.18,4.037,9.742c2.563,2.563,6.118,4.038,9.742,4.038s7.18-1.475,9.741-4.038c2.563-2.563,4.039-6.118,4.039-9.742
		s-1.475-7.179-4.039-9.742C428.129,532.568,424.573,531.094,420.949,531.094z"/>
</g>
</svg>
