<?xml version="1.0" encoding="utf-8"?>
<!-- Generator: Adobe Illustrator 16.0.3, SVG Export Plug-In . SVG Version: 6.00 Build 0)  -->
<!DOCTYPE svg PUBLIC "-//W3C//DTD SVG 1.1//EN" "http://www.w3.org/Graphics/SVG/1.1/DTD/svg11.dtd">
<svg version="1.1" id="Layer_1" xmlns="http://www.w3.org/2000/svg" xmlns:xlink="http://www.w3.org/1999/xlink" x="0px" y="0px"
	 width="595.281px" height="555.596px" viewBox="123.304 19.843 595.281 555.596"
	 enable-background="new 123.304 19.843 595.281 555.596" xml:space="preserve">
<g>
	<g>
		<path fill="#FFFFFF" d="M688.821,287.719V69.449c0-27.353-22.253-49.606-49.606-49.606H202.676
			c-27.354,0-49.606,22.254-49.606,49.606v148.82c-16.41,0-29.765,13.354-29.765,29.765v297.64c0,16.41,13.354,29.765,29.765,29.765
			h218.27c16.409,0,29.764-13.354,29.764-29.765h83.15c9.356,0,17.978-4.266,23.653-11.697c5.675-7.431,7.52-16.876,5.06-25.895
			l-19.506-71.543h56.463v109.135c0,16.41,13.354,29.765,29.764,29.765h109.135c16.41,0,29.765-13.354,29.765-29.765v-228.19
			C718.586,301.073,705.231,287.719,688.821,287.719z M381.26,545.674c0,5.467-4.455,9.922-9.921,9.922h-218.27
			c-5.467,0-9.922-4.455-9.922-9.922v-19.843H381.26V545.674z M381.26,505.988H143.147v-218.27H381.26V505.988z M381.26,267.876
			H143.147v-19.842c0-5.467,4.455-9.922,9.922-9.922h218.27c5.466,0,9.921,4.455,9.921,9.922V267.876z M493.827,513.301
			c0.824,3.006,0.209,6.151-1.687,8.632c-1.895,2.48-4.762,3.898-7.887,3.898h-83.151v-19.843h90.73L493.827,513.301z
			 M401.102,486.146v-49.607h71.791l13.532,49.607H401.102z M549.923,416.696h-148.82v-59.527h148.82V416.696z M549.923,317.483
			v19.843h-148.82v-89.292c0-16.41-13.354-29.765-29.764-29.765H172.912V69.449c0-16.409,13.354-29.764,29.764-29.764h436.539
			c16.41,0,29.764,13.354,29.764,29.764v218.27h-89.292C563.277,287.719,549.923,301.073,549.923,317.483z M698.743,545.674
			c0,5.467-4.455,9.922-9.922,9.922H579.686c-5.467,0-9.921-4.455-9.921-9.922v-19.843h128.978V545.674z M698.743,505.988H569.765
			V357.169h128.978V505.988z M698.743,337.326H569.765v-19.843c0-5.467,4.454-9.922,9.921-9.922h109.135
			c5.467,0,9.922,4.455,9.922,9.922V337.326z"/>
	</g>
</g>
<path fill="#FFFFFF" d="M291.968,76.536c0,1.565-1.269,2.834-2.834,2.834h-14.174c-1.565,0-2.834-1.269-2.834-2.834V62.363
	c0-1.565,1.269-2.834,2.834-2.834h14.174c1.565,0,2.834,1.269,2.834,2.834V76.536z"/>
<path fill="#FFFFFF" d="M252.282,76.536c0,1.565-1.269,2.834-2.834,2.834h-14.174c-1.565,0-2.834-1.269-2.834-2.834V62.363
	c0-1.565,1.269-2.834,2.834-2.834h14.174c1.565,0,2.834,1.269,2.834,2.834V76.536z"/>
<path fill="#FFFFFF" d="M212.596,76.536c0,1.565-1.269,2.834-2.834,2.834h-14.174c-1.565,0-2.834-1.269-2.834-2.834V62.363
	c0-1.565,1.269-2.834,2.834-2.834h14.174c1.565,0,2.834,1.269,2.834,2.834V76.536z"/>
</svg>
