<?xml version="1.0" encoding="utf-8"?>
<!-- Generator: Adobe Illustrator 16.0.3, SVG Export Plug-In . SVG Version: 6.00 Build 0)  -->
<!DOCTYPE svg PUBLIC "-//W3C//DTD SVG 1.1//EN" "http://www.w3.org/Graphics/SVG/1.1/DTD/svg11.dtd">
<svg version="1.1" id="Capa_1" xmlns="http://www.w3.org/2000/svg" xmlns:xlink="http://www.w3.org/1999/xlink" x="0px" y="0px"
	 width="211.5px" height="161.809px" viewBox="92.247 116.497 211.5 161.809" enable-background="new 92.247 116.497 211.5 161.809"
	 xml:space="preserve">
<g>
	<path fill="#717071" stroke="#717071" stroke-width="2" stroke-miterlimit="10" d="M254.213,268.172h-22.782
		c-0.821,0-1.493-0.672-1.493-1.494v-5.546c0-0.821-0.673-1.493-1.494-1.493h-31.877c-0.822,0-1.495,0.672-1.495,1.493v5.546
		c0,0.822-0.672,1.494-1.494,1.494H176.45c-0.822,0-1.494,0.672-1.494,1.493v6.415c0,0.822,0.672,1.494,1.494,1.494h77.762
		c0.821,0,1.493-0.672,1.493-1.494v-6.415C255.706,268.845,255.034,268.172,254.213,268.172z"/>
	<g>
		<path fill="#717071" stroke="#717071" stroke-width="2" stroke-miterlimit="10" d="M292.488,118.189H129.924
			c-5.656,0-10.257,4.602-10.257,10.259c0,0,0,19.561,0,26.757c0,3.538-0.263,4.038,2.111,4.038c1.26,0,2.656,0,4.069,0
			c1.991,0,1.583-0.5,1.583-4.104c0-7.18,0-26.691,0-26.691c0-1.352,1.143-2.495,2.495-2.495h162.564
			c1.351,0,2.493,1.143,2.493,2.495V228.6H179.084c0,0-4.084-0.007-4.084,5.274c0,3.132,0,9.395,0,12.527
			c0,5.274,4.217,5.274,4.217,5.274h113.272c5.655,0,10.258-4.602,10.258-10.258v-112.97
			C302.746,122.791,298.145,118.189,292.488,118.189z M211.206,242.818c-2.554,0-4.623-2.069-4.623-4.621
			c0-2.553,2.069-4.623,4.623-4.623c2.552,0,4.622,2.07,4.622,4.623C215.828,240.749,213.758,242.818,211.206,242.818z"/>
		<path fill="#717071" stroke="#717071" stroke-width="2" stroke-miterlimit="10" d="M159.176,168.405h-58.809
			c-3.651,0-6.62,2.969-6.62,6.621v96.659c0,3.65,2.969,6.621,6.62,6.621h58.809c3.649,0,6.62-2.971,6.62-6.621v-96.659
			C165.796,171.374,162.825,168.405,159.176,168.405z M122.517,175.157h14.508c0.692,0,1.254,0.561,1.254,1.255
			c0,0.693-0.562,1.254-1.254,1.254h-14.508c-0.693,0-1.254-0.561-1.254-1.254C121.263,175.718,121.824,175.157,122.517,175.157z
			 M129.683,273.655c-1.892,0-3.426-1.534-3.426-3.427s1.534-3.426,3.426-3.426c1.893,0,3.426,1.533,3.426,3.426
			S131.576,273.655,129.683,273.655z M160.107,263.585c0,0.884-0.707,1.606-1.57,1.606h-57.529c-0.864,0-1.571-0.723-1.571-1.606
			v-80.319c0-0.884,0.708-1.606,1.571-1.606h57.529c0.863,0,1.57,0.723,1.57,1.606V263.585z"/>
	</g>
</g>
</svg>
